<svg width="48" height="96" viewBox="0 0 48 96" fill="none" xmlns="http://www.w3.org/2000/svg">
  <rect x="0.5" y="0.5" width="47" height="95" rx="2.7" stroke="#C5CEDF" />
  <path
    d="M40.7987 31.3787C40.8891 25.2267 40.9794 21.248 40.9794 21.1947C40.9766 17.9307 39.9558 11.384 36.0942 9.87201C33.3081 8.78134 28.7897 8.12267 24.1672 8.00534L24.1672 8C24.148 8 24.1289 8 24.1097 8.00267C24.0906 8 24.0714 8 24.0523 8L24.0523 8.00267C19.4298 8.12267 14.9113 8.78134 12.1253 9.86933C8.26365 11.3813 7.24009 17.928 7.24008 21.1947C7.24008 21.248 7.32766 25.1227 7.41797 31.1387C7.17166 31.4027 3.34014 35.5573 5.4119 36.0533C6.43273 36.2987 7.08135 36.08 7.48092 35.7867C7.50555 37.7413 7.52745 39.832 7.5466 42.024C7.65334 54.176 7.66702 68.216 7.24281 79.0187C7.17165 81.9227 9.06278 85.7253 13.116 86.8347C16.3208 87.712 20.3767 87.9493 24.055 87.952L24.055 88C24.0741 88 24.0933 88 24.1125 88C24.1316 88 24.1508 88 24.1699 88L24.1699 87.9493C27.8482 87.9467 31.9041 87.7093 35.1089 86.832C39.1621 85.7227 41.0533 81.92 40.9821 79.016C40.5743 68.648 40.5743 53.856 40.6783 42.0213C40.6975 39.88 40.7194 37.8373 40.7413 35.9227C41.1463 36.1387 41.7375 36.256 42.5886 36.0507C44.4168 35.6133 41.6417 32.3227 40.7987 31.3787Z"
    fill="#7592B6" fill-opacity="0.16" />
</svg>
