<svg width="288" height="600" viewBox="0 0 72 150" fill="none" xmlns="http://www.w3.org/2000/svg">
<path d="M67.498 43.835C67.6673 32.3 67.8367 24.84 67.8367 24.74C67.8316 18.62 65.9175 6.345 58.677 3.51C53.4531 1.465 44.981 0.23 36.3139 0.01V0C36.278 0 36.242 0 36.2061 0.005C36.1702 0 36.1343 0 36.0983 0V0.005C27.4312 0.23 18.9591 1.465 13.7353 3.505C6.49471 6.34 4.57553 18.615 4.57553 24.74C4.57553 24.84 4.73974 32.105 4.90908 43.385C4.44724 43.88 -2.73686 51.67 1.14769 52.6C3.06174 53.06 4.2779 52.65 5.0271 52.1C5.07329 55.765 5.11434 59.685 5.15026 63.795C5.35039 86.58 5.37604 112.905 4.58066 133.16C4.44724 138.605 7.99311 145.735 15.5929 147.815C21.6019 149.46 29.2067 149.905 36.1035 149.91V150C36.1394 150 36.1753 150 36.2112 150C36.2472 150 36.2831 150 36.319 150V149.905C43.2157 149.9 50.8206 149.455 56.8296 147.81C64.4294 145.73 67.9752 138.6 67.8418 133.155C67.0772 113.715 67.0772 85.98 67.2722 63.79C67.3081 59.775 67.3492 55.945 67.3903 52.355C68.1497 52.76 69.2581 52.98 70.854 52.595C74.2819 51.775 69.0785 45.605 67.498 43.835Z" fill="#7592B6" fill-opacity="0.16"/>
</svg>
